<svg id="Layer_1" data-name="Layer 1" xmlns="http://www.w3.org/2000/svg" viewBox="0 0 199.18 201"><defs><style>.cls-1{fill:#09bcd4;stroke:#09bcd4;}.cls-1,.cls-2,.cls-3,.cls-4,.cls-5{stroke-miterlimit:10;}.cls-2{fill:#ef4438;stroke:#ef4438;}.cls-3{fill:#f8981d;stroke:#f8981d;}.cls-4{fill:#983794;stroke:#983794;}.cls-5{fill:#3a54a4;stroke:#3a54a4;}.cls-6{font-size:11px;fill:#231f20;font-family:Myriad Pro;}</style></defs><title>tBotLegend</title><rect class="cls-1" x="0.5" y="0.5" width="67" height="40"/><rect class="cls-2" x="0.5" y="40.5" width="67" height="40"/><rect class="cls-3" x="0.5" y="80.5" width="67" height="40"/><rect class="cls-4" x="0.5" y="120.5" width="67" height="40"/><rect class="cls-5" x="0.5" y="160.5" width="67" height="40"/><text class="cls-6" transform="translate(71.19 16.5)">E<tspan x="5.37" y="0">duc</tspan><tspan x="22.56" y="0">a</tspan><tspan x="27.82" y="0">tion, B</tspan><tspan x="56.75" y="0">r</tspan><tspan x="60.39" y="0">iefings </tspan><tspan x="0" y="13.2">and</tspan><tspan x="17.61" y="13.2"> </tspan><tspan x="19.49" y="13.2">T</tspan><tspan x="24.18" y="13.2">eaching</tspan></text><text class="cls-6" transform="translate(71.19 57.11)">M<tspan x="8.91" y="0">embership</tspan><tspan x="58.25" y="0">s</tspan><tspan x="62.49" y="0">, </tspan><tspan x="67.1" y="0">A</tspan><tspan x="73.7" y="0">uthorships</tspan><tspan x="0" y="13.2">and </tspan><tspan x="19.94" y="13.2">R</tspan><tspan x="25.9" y="13.2">e</tspan><tspan x="31.42" y="13.2">c</tspan><tspan x="36.28" y="13.2">o</tspan><tspan x="42.32" y="13.2">g</tspan><tspan x="48.4" y="13.2">nition</tspan></text><text class="cls-6" transform="translate(71.19 96.5)">M<tspan x="8.91" y="0">ethods and S</tspan><tspan x="68.46" y="0">k</tspan><tspan x="73.81" y="0">ills</tspan><tspan x="0" y="13.2">P</tspan><tspan x="5.68" y="13.2">r</tspan><tspan x="9.16" y="13.2">oficien</tspan><tspan x="40.07" y="13.2">c</tspan><tspan x="45.2" y="13.2">y</tspan></text><text class="cls-6" transform="translate(71.19 136.8)">Ope<tspan x="19.35" y="0">r</tspan><tspan x="22.89" y="0">a</tspan><tspan x="28.15" y="0">tional </tspan><tspan x="56.74" y="0">R</tspan><tspan x="62.7" y="0">esponsibilities</tspan><tspan x="0" y="13.2">and Expe</tspan><tspan x="42.22" y="13.2">r</tspan><tspan x="46.08" y="13.2">tise</tspan></text><text class="cls-6" transform="translate(73.11 176.8)">S<tspan x="5.49" y="0">o</tspan><tspan x="11.53" y="0">f</tspan><tspan x="14.86" y="0">t</tspan><tspan x="18.6" y="0">w</tspan><tspan x="26.65" y="0">a</tspan><tspan x="31.95" y="0">r</tspan><tspan x="35.44" y="0">e and </tspan><tspan x="63.23" y="0">D</tspan><tspan x="70.6" y="0">evi</tspan><tspan x="83.97" y="0">c</tspan><tspan x="88.83" y="0">e </tspan><tspan x="0" y="13.2">P</tspan><tspan x="5.68" y="13.2">r</tspan><tspan x="9.16" y="13.2">oficien</tspan><tspan x="40.07" y="13.2">c</tspan><tspan x="45.2" y="13.2">y</tspan></text></svg>