<svg id="Layer_1" data-name="Layer 1" xmlns="http://www.w3.org/2000/svg" viewBox="0 0 194.92 201"><defs><style>.cls-1{fill:#09bcd4;stroke:#09bcd4;}.cls-1,.cls-2,.cls-3,.cls-4,.cls-5{stroke-miterlimit:10;}.cls-2{fill:#ef4438;stroke:#ef4438;}.cls-3{fill:#f8981d;stroke:#f8981d;}.cls-4{fill:#983794;stroke:#983794;}.cls-5{fill:#3a54a4;stroke:#3a54a4;}.cls-6{font-size:10px;fill:#231f20;font-family:Roboto;}</style></defs><title>tBotLegend</title><rect class="cls-1" x="0.5" y="0.5" width="67" height="40"/><rect class="cls-2" x="0.5" y="40.5" width="67" height="40"/><rect class="cls-3" x="0.5" y="80.5" width="67" height="40"/><rect class="cls-4" x="0.5" y="120.5" width="67" height="40"/><rect class="cls-5" x="0.5" y="160.5" width="67" height="40"/><text class="cls-6" transform="translate(71.19 16.5)">E<tspan x="5.59" y="0">ducation, Briefings </tspan><tspan x="0" y="12">and</tspan><tspan x="16.6" y="12"> </tspan><tspan x="18.88" y="12">T</tspan><tspan x="24.36" y="12">eaching</tspan></text><text class="cls-6" transform="translate(71.19 57.11)">Memberships, <tspan x="65.38" y="0">A</tspan><tspan x="71.85" y="0">uthorships</tspan><tspan x="0" y="12">and Recognition</tspan></text><text class="cls-6" transform="translate(71.19 96.5)">Methods and Skills<tspan x="0" y="12">P</tspan><tspan x="6.31" y="12">r</tspan><tspan x="9.59" y="12">oficiency</tspan></text><text class="cls-6" transform="translate(71.19 136.8)">Ope<tspan x="17.78" y="0">r</tspan><tspan x="20.97" y="0">ational Responsibilities</tspan><tspan x="0" y="12">and Expe</tspan><tspan x="40.62" y="12">r</tspan><tspan x="44.25" y="12">tise</tspan></text><text class="cls-6" transform="translate(73.11 176.8)">Softwa<tspan x="31.33" y="0">r</tspan><tspan x="34.62" y="0">e and D</tspan><tspan x="68.02" y="0">e</tspan><tspan x="73.26" y="0">vice </tspan><tspan x="0" y="12">P</tspan><tspan x="6.31" y="12">r</tspan><tspan x="9.59" y="12">oficiency</tspan></text></svg>