<svg id="Layer_1" data-name="Layer 1" xmlns="http://www.w3.org/2000/svg" viewBox="0 0 551.28 201.15"><defs><style>.cls-1{fill:#09bcd4;}.cls-1,.cls-10{stroke:#09bcd4;}.cls-1,.cls-10,.cls-11,.cls-12,.cls-13,.cls-14,.cls-15,.cls-16,.cls-17,.cls-2,.cls-3,.cls-4,.cls-5,.cls-6,.cls-7,.cls-8,.cls-9{stroke-miterlimit:10;}.cls-2{fill:#ef4438;stroke:#ef4438;}.cls-3{fill:#f8981d;stroke:#f8981d;}.cls-4{fill:#903f98;stroke:#903f98;}.cls-5{fill:#3953a4;stroke:#3953a4;}.cls-6{fill:#4eaf4c;stroke:#4daf4e;}.cls-7{fill:#f6ec13;stroke:#f6ec13;}.cls-8{fill:#dd4b38;stroke:#dd4b38;}.cls-9{fill:#36465c;stroke:#36465c;}.cls-10{fill:#11bcd4;}.cls-11{fill:#f89820;stroke:#f89820;}.cls-12{fill:#904098;stroke:#904098;}.cls-13{fill:#3a54a4;stroke:#3a54a4;}.cls-14{fill:#4faf4a;stroke:#4faf4a;}.cls-15{fill:#f4eb14;stroke:#f4eb14;}.cls-16{fill:#dd4b37;stroke:#dd4b37;}.cls-17{fill:#37465c;stroke:#37465c;}.cls-18{font-size:11px;fill:#fff;font-family:Myriad Pro;}</style></defs><title>tTopLegend</title><rect class="cls-1" x="0.85" y="100.65" width="55" height="100"/><rect class="cls-2" x="55.85" y="100.65" width="55" height="100"/><rect class="cls-3" x="110.85" y="100.65" width="55" height="100"/><rect class="cls-4" x="165.85" y="100.65" width="55" height="100"/><rect class="cls-5" x="220.85" y="100.65" width="55" height="100"/><rect class="cls-6" x="275.85" y="100.65" width="55" height="100"/><rect class="cls-7" x="330.85" y="100.65" width="55" height="100"/><rect class="cls-8" x="385.85" y="100.65" width="55" height="100"/><rect class="cls-9" x="440.85" y="100.65" width="55" height="100"/><polyline class="cls-10" points="110.85 0.65 55.85 100.65 0.85 100.65 55.85 0.65 110.85 0.65"/><polyline class="cls-2" points="165.85 0.65 110.85 100.65 55.85 100.65 110.85 0.65 165.85 0.65"/><polyline class="cls-11" points="220.85 0.65 165.85 100.65 110.85 100.65 165.85 0.65 220.85 0.65"/><polyline class="cls-12" points="275.85 0.65 220.85 100.65 165.85 100.65 220.85 0.65 275.85 0.65"/><polyline class="cls-13" points="330.85 0.65 275.85 100.65 220.85 100.65 275.85 0.65 330.85 0.65"/><polyline class="cls-14" points="385.85 0.65 330.85 100.65 275.85 100.65 330.85 0.65 385.85 0.65"/><polyline class="cls-15" points="440.85 0.65 385.85 100.65 330.85 100.65 385.85 0.65 440.85 0.65"/><polyline class="cls-16" points="495.85 0.65 440.85 100.65 385.85 100.65 440.85 0.65 495.85 0.65"/><polyline class="cls-17" points="550.85 0.65 495.85 100.65 440.85 100.65 495.85 0.65 550.85 0.65"/><text class="cls-18" transform="translate(32.35 93.47) rotate(-61)">C<tspan x="6.26" y="0">ommunic</tspan><tspan x="50.31" y="0">a</tspan><tspan x="55.57" y="0">tions</tspan></text><text class="cls-18" transform="translate(86.85 93.47) rotate(-61)">C<tspan x="6.35" y="0">r</tspan><tspan x="9.99" y="0">itical</tspan><tspan x="31.6" y="0"> </tspan><tspan x="33.48" y="0">T</tspan><tspan x="38.87" y="0">hin</tspan><tspan x="53.66" y="0">k</tspan><tspan x="59" y="0">ing</tspan></text><text class="cls-18" transform="translate(138.35 93.47) rotate(-61)">Emp<tspan x="20.84" y="0">a</tspan><tspan x="26.1" y="0">t</tspan><tspan x="29.74" y="0">h</tspan><tspan x="35.71" y="0">y</tspan></text><text class="cls-18" transform="translate(193.35 93.47) rotate(-61)">Global Understanding</text><text class="cls-18" transform="translate(252.85 93.47) rotate(-61)">Ne<tspan x="12.75" y="0">t</tspan><tspan x="16.49" y="0">w</tspan><tspan x="24.47" y="0">o</tspan><tspan x="30.51" y="0">r</tspan><tspan x="34.15" y="0">k</tspan><tspan x="39.5" y="0">ing</tspan></text><text class="cls-18" transform="translate(306.85 93.47) rotate(-61)">O<tspan x="7.58" y="0">r</tspan><tspan x="11.09" y="0">ganiz</tspan><tspan x="35.93" y="0">a</tspan><tspan x="41.18" y="0">tional </tspan><tspan x="69.77" y="0">D</tspan><tspan x="77.14" y="0">esi</tspan><tspan x="89.58" y="0">g</tspan><tspan x="95.67" y="0">n</tspan></text><text class="cls-18" transform="translate(358.35 100.65) rotate(-61)">P<tspan x="5.58" y="0">erspe</tspan><tspan x="30.81" y="0">c</tspan><tspan x="35.88" y="0">ti</tspan><tspan x="42.1" y="0">v</tspan><tspan x="47.28" y="0">e</tspan></text><text class="cls-18" transform="translate(413.35 100.65) rotate(-61)">P<tspan x="5.68" y="0">r</tspan><tspan x="9.16" y="0">oje</tspan><tspan x="23.39" y="0">c</tspan><tspan x="28.46" y="0">t </tspan><tspan x="34.43" y="0">M</tspan><tspan x="43.34" y="0">anageme</tspan><tspan x="86.39" y="0">n</tspan><tspan x="92.45" y="0">t</tspan></text><text class="cls-18" transform="translate(468.35 100.65) rotate(-61)">T<tspan x="4.69" y="0">ea</tspan><tspan x="15.5" y="0">m</tspan><tspan x="24.53" y="0">w</tspan><tspan x="32.52" y="0">o</tspan><tspan x="38.55" y="0">r</tspan><tspan x="42.2" y="0">k</tspan></text></svg>