<svg id="Layer_1" data-name="Layer 1" xmlns="http://www.w3.org/2000/svg" viewBox="0 0 551.28 101"><defs><style>.cls-1{fill:#11bcd4;stroke:#09bcd4;}.cls-1,.cls-2,.cls-3,.cls-4,.cls-5,.cls-6,.cls-7,.cls-8,.cls-9{stroke-miterlimit:10;}.cls-2{fill:#ef4438;stroke:#ef4438;}.cls-3{fill:#f89820;stroke:#f89820;}.cls-4{fill:#904098;stroke:#904098;}.cls-5{fill:#3a54a4;stroke:#3a54a4;}.cls-6{fill:#4faf4a;stroke:#4faf4a;}.cls-7{fill:gray;stroke:gray;}.cls-8{fill:#dd4b37;stroke:#dd4b37;}.cls-9{fill:#37465c;stroke:#37465c;}.cls-10{font-size:14px;fill:#fff;font-family:Myriad Pro;}</style></defs><title>tTopLegend2</title><polyline class="cls-1" points="110.85 0.5 55.85 100.5 0.85 100.5 55.85 0.5 110.85 0.5"/><polyline class="cls-2" points="165.85 0.5 110.85 100.5 55.85 100.5 110.85 0.5 165.85 0.5"/><polyline class="cls-3" points="220.85 0.5 165.85 100.5 110.85 100.5 165.85 0.5 220.85 0.5"/><polyline class="cls-4" points="275.85 0.5 220.85 100.5 165.85 100.5 220.85 0.5 275.85 0.5"/><polyline class="cls-5" points="330.85 0.5 275.85 100.5 220.85 100.5 275.85 0.5 330.85 0.5"/><polyline class="cls-6" points="385.85 0.5 330.85 100.5 275.85 100.5 330.85 0.5 385.85 0.5"/><polyline class="cls-7" points="440.85 0.5 385.85 100.5 330.85 100.5 385.85 0.5 440.85 0.5"/><polyline class="cls-8" points="495.85 0.5 440.85 100.5 385.85 100.5 440.85 0.5 495.85 0.5"/><polyline class="cls-9" points="550.85 0.5 495.85 100.5 440.85 100.5 495.85 0.5 550.85 0.5"/><text class="cls-10" transform="translate(32.35 93.33) rotate(-61)">C<tspan x="7.97" y="0">ommunic</tspan><tspan x="64.04" y="0">a</tspan><tspan x="70.73" y="0">tions</tspan></text><text class="cls-10" transform="translate(86.85 93.33) rotate(-61)">C<tspan x="8.08" y="0">r</tspan><tspan x="12.71" y="0">itical</tspan><tspan x="40.22" y="0"> </tspan><tspan x="42.62" y="0">T</tspan><tspan x="49.48" y="0">hin</tspan><tspan x="68.29" y="0">k</tspan><tspan x="75.1" y="0">ing</tspan></text><text class="cls-10" transform="translate(143.85 93.33) rotate(-61)">Emp<tspan x="26.53" y="0">a</tspan><tspan x="33.22" y="0">t</tspan><tspan x="37.86" y="0">h</tspan><tspan x="45.44" y="0">y</tspan></text><text class="cls-10" transform="translate(193.35 87.83) rotate(-61)">Global <tspan x="0" y="16.8">Understanding</tspan></text><text class="cls-10" transform="translate(252.85 93.33) rotate(-61)">Ne<tspan x="16.23" y="0">t</tspan><tspan x="20.99" y="0">w</tspan><tspan x="31.15" y="0">o</tspan><tspan x="38.84" y="0">r</tspan><tspan x="43.47" y="0">k</tspan><tspan x="50.27" y="0">ing</tspan></text><text class="cls-10" transform="translate(303.35 87.83) rotate(-61)">O<tspan x="9.65" y="0">r</tspan><tspan x="14.11" y="0">ganiz</tspan><tspan x="45.72" y="0">a</tspan><tspan x="52.42" y="0">tional </tspan><tspan x="0" y="16.8">D</tspan><tspan x="9.38" y="16.8">esi</tspan><tspan x="25.21" y="16.8">g</tspan><tspan x="32.96" y="16.8">n</tspan></text><text class="cls-10" transform="translate(364.35 93.33) rotate(-61)">P<tspan x="7.1" y="0">erspe</tspan><tspan x="39.21" y="0">c</tspan><tspan x="45.67" y="0">ti</tspan><tspan x="53.58" y="0">v</tspan><tspan x="60.17" y="0">e</tspan></text><text class="cls-10" transform="translate(415.85 87.83) rotate(-61)">P<tspan x="7.22" y="0">r</tspan><tspan x="11.66" y="0">oje</tspan><tspan x="29.76" y="0">c</tspan><tspan x="36.22" y="0">t</tspan><tspan x="0" y="16.8"> </tspan><tspan x="2.97" y="16.8">M</tspan><tspan x="14.31" y="16.8">anageme</tspan><tspan x="69.1" y="16.8">n</tspan><tspan x="76.82" y="16.8">t</tspan></text><text class="cls-10" transform="translate(471.85 93.33) rotate(-61)">T<tspan x="5.96" y="0">ea</tspan><tspan x="19.73" y="0">m</tspan><tspan x="31.22" y="0">w</tspan><tspan x="41.38" y="0">o</tspan><tspan x="49.07" y="0">r</tspan><tspan x="53.7" y="0">k</tspan></text></svg>